HIERARCHY
ROOT Hips
{
	OFFSET 0.000000 0.000000 0.000000
	CHANNELS 6 Xposition Yposition Zposition Zrotation Yrotation Xrotation 
	JOINT LHipJoint
	{
		OFFSET 0.000000 0.000000 0.000000
		CHANNELS 3 Zrotation Yrotation Xrotation
		JOINT LeftUpLeg
		{
			OFFSET 1.363060 -1.794630 0.839290
			CHANNELS 3 Zrotation Yrotation Xrotation
			JOINT LeftLeg
			{
				OFFSET 2.448110 -6.726130 0.000000
				CHANNELS 3 Zrotation Yrotation Xrotation
				JOINT LeftFoot
				{
					OFFSET 2.562200 -7.039590 0.000000
					CHANNELS 3 Zrotation Yrotation Xrotation
					JOINT LeftToeBase
					{
						OFFSET 0.157640 -0.433110 2.322550
						CHANNELS 3 Zrotation Yrotation Xrotation
						End Site
						{
							OFFSET 0.000000 0.000000 0.000000
						}
					}
				}
			}
		}
	}
	JOINT RHipJoint
	{
		OFFSET 0.000000 0.000000 0.000000
		CHANNELS 3 Zrotation Yrotation Xrotation
		JOINT RightUpLeg
		{
			OFFSET -1.305520 -1.794630 0.839290
			CHANNELS 3 Zrotation Yrotation Xrotation
			JOINT RightLeg
			{
				OFFSET -2.542530 -6.985550 0.000000
				CHANNELS 3 Zrotation Yrotation Xrotation
				JOINT RightFoot
				{
					OFFSET -2.568260 -7.056230 0.000000
					CHANNELS 3 Zrotation Yrotation Xrotation
					JOINT RightToeBase
					{
						OFFSET -0.164730 -0.452590 2.363150
						CHANNELS 3 Zrotation Yrotation Xrotation
						End Site
						{
							OFFSET 0.000000 0.000000 0.000000
						}
					}
				}
			}
		}
	}
	JOINT LowerBack
	{
		OFFSET 0.000000 0.000000 0.000000
		CHANNELS 3 Zrotation Yrotation Xrotation
		JOINT Spine
		{
			OFFSET 0.028270 2.035590 -0.193380
			CHANNELS 3 Zrotation Yrotation Xrotation
			JOINT Spine1
			{
				OFFSET 0.056720 2.048850 -0.042750
				CHANNELS 3 Zrotation Yrotation Xrotation
				JOINT Neck
				{
					OFFSET 0.000000 0.000000 0.000000
					CHANNELS 3 Zrotation Yrotation Xrotation
					JOINT Neck1
					{
						OFFSET -0.054170 1.746240 0.172020
						CHANNELS 3 Zrotation Yrotation Xrotation
						JOINT Head
						{
							OFFSET 0.104070 1.761360 -0.123970
							CHANNELS 3 Zrotation Yrotation Xrotation
							End Site
							{
								OFFSET 0.000000 0.000000 0.000000
							}
						}
					}
				}
				JOINT LeftShoulder
				{
					OFFSET 0.000000 0.000000 0.000000
					CHANNELS 3 Zrotation Yrotation Xrotation
					JOINT LeftArm
					{
						OFFSET 3.362410 1.200890 -0.311210
						CHANNELS 3 Zrotation Yrotation Xrotation
						JOINT LeftForeArm
						{
							OFFSET 4.983000 -0.000000 -0.000000
							CHANNELS 3 Zrotation Yrotation Xrotation
							JOINT LeftHand
							{
								OFFSET 3.483560 -0.000000 -0.000000
								CHANNELS 3 Zrotation Yrotation Xrotation
								JOINT LeftFingerBase
								{
									OFFSET 0.000000 0.000000 0.000000
									CHANNELS 3 Zrotation Yrotation Xrotation
									JOINT LeftHandIndex1
									{
										OFFSET 0.715260 -0.000000 -0.000000
										CHANNELS 3 Zrotation Yrotation Xrotation
										End Site
										{
											OFFSET 0.000000 0.000000 0.000000
										}
									}
								}
								JOINT LThumb
								{
									OFFSET 0.000000 0.000000 0.000000
									CHANNELS 3 Zrotation Yrotation Xrotation
									End Site
									{
										OFFSET 0.000000 0.000000 0.000000
									}
								}
							}
						}
					}
				}
				JOINT RightShoulder
				{
					OFFSET 0.000000 0.000000 0.000000
					CHANNELS 3 Zrotation Yrotation Xrotation
					JOINT RightArm
					{
						OFFSET -3.136600 1.374050 -0.404650
						CHANNELS 3 Zrotation Yrotation Xrotation
						JOINT RightForeArm
						{
							OFFSET -5.241900 -0.000000 -0.000000
							CHANNELS 3 Zrotation Yrotation Xrotation
							JOINT RightHand
							{
								OFFSET -3.444170 -0.000000 -0.000000
								CHANNELS 3 Zrotation Yrotation Xrotation
								JOINT RightFingerBase
								{
									OFFSET 0.000000 0.000000 0.000000
									CHANNELS 3 Zrotation Yrotation Xrotation
									JOINT RightHandIndex1
									{
										OFFSET -0.622530 -0.000000 -0.000000
										CHANNELS 3 Zrotation Yrotation Xrotation
										End Site
										{
											OFFSET 0.000000 0.000000 0.000000
										}
									}
								}
								JOINT RThumb
								{
									OFFSET 0.000000 0.000000 0.000000
									CHANNELS 3 Zrotation Yrotation Xrotation
									End Site
									{
										OFFSET 0.000000 0.000000 0.000000
									}
								}
							}
						}
					}
				}
			}
		}
	}
}
MOTION
Frames: 5
Frame Time: 0.008333
0.696631 18.354153 9.222144 -11.421575 3.813349 13.431438 6.860121 4.853846 -1.785232 -14.077056 -46.526313 15.948600 -3.625916 -2.176253 -3.295049 -15.174059 44.424091 -25.713290 0.214200 2.979300 8.221100 0.890013 -4.319407 0.057362 24.212778 26.997011 -0.405401 3.675106 -0.880860 2.913803 8.914471 -27.639563 -4.639970 -0.029500 -1.109500 3.050200 -3.389682 1.198947 4.385052 27.278566 6.835871 -21.542642 -12.010339 -2.029262 -10.632101 -14.991297 -7.404572 -14.782693 13.907487 -10.779482 31.745193 2.624300 -3.433100 9.587600 -10.864679 -5.576005 1.446377 -90.158365 14.869652 -7.197826 13.783683 -16.010097 -2.702502 -0.624358 1.282160 20.538539 18.615799 -7.187273 -2.907200 -7.125000 0.000000 0.000000 -5.212900 21.321400 2.972800 10.456274 7.677129 2.443102 79.044440 -12.996523 -7.096954 -12.520805 17.058677 -2.406223 1.008402 1.401063 47.251793 7.166672 -28.059841 -3.742400 7.125000 0.000000 0.000000 40.407100 -54.893700 -11.166900 
0.696948 18.354047 9.225412 -11.406898 3.778018 13.435554 6.862868 4.855822 -1.779619 -14.109567 -46.507319 15.970595 -3.628244 -2.184630 -3.310123 -15.177788 44.438336 -25.750647 0.213000 2.971200 8.198600 0.893781 -4.325753 0.062931 24.189013 27.034036 -0.371670 3.676271 -0.867206 2.876777 8.919383 -27.655463 -4.605408 -0.029300 -1.105300 3.038500 -3.393183 1.242412 4.379587 27.281116 6.886342 -21.534067 -12.028041 -2.004818 -10.621342 -15.082811 -7.444401 -14.797485 13.943520 -10.821802 31.746214 2.637700 -3.453900 9.598500 -10.856082 -5.582750 1.444113 -90.199806 14.813666 -7.020709 13.825746 -16.056001 -2.721584 -0.640362 1.293878 20.318759 18.790309 -7.269345 -2.970100 -7.125000 0.000000 0.000000 -5.075500 21.214200 2.906200 10.459655 7.684058 2.449534 78.993393 -12.997755 -7.317703 -12.506014 17.039048 -2.399978 1.011077 1.392494 47.443147 7.112467 -28.034373 -3.710500 7.125000 0.000000 0.000000 40.330000 -54.880900 -11.126400 
0.697580 18.353625 9.228997 -11.387290 3.777934 13.452393 6.859981 4.859276 -1.782363 -14.187845 -46.579997 16.061152 -3.630530 -2.193915 -3.336004 -15.203432 44.504093 -25.848956 0.212200 2.965600 8.183000 0.891657 -4.328570 0.061934 24.172199 27.046208 -0.349906 3.677206 -0.860321 2.858233 8.926399 -27.674467 -4.595927 -0.027100 -1.062800 2.921700 -3.365648 1.255964 4.363549 27.231237 6.907849 -21.574703 -12.031523 -1.990984 -10.585371 -15.033741 -7.453316 -14.779244 13.846944 -10.819140 31.749653 2.607200 -3.462300 9.593200 -10.852943 -5.589924 1.447768 -90.199159 14.787870 -6.866202 13.854396 -16.092010 -2.742197 -0.637260 1.332423 20.138151 18.975558 -7.637432 -3.148400 -7.125000 0.000000 0.000000 -4.937700 20.770800 2.876300 10.465870 7.685849 2.455410 78.960093 -12.987425 -7.561230 -12.474491 16.996232 -2.388627 1.015917 1.384134 47.676196 7.092440 -28.024476 -3.697700 7.125000 0.000000 0.000000 40.298400 -54.875000 -11.109100 
0.697475 18.353309 9.231738 -11.372709 3.801239 13.491655 6.855773 4.862917 -1.792868 -14.290397 -46.777246 16.207046 -3.633722 -2.199745 -3.356260 -15.230369 44.595210 -26.084890 0.217500 3.002200 8.284900 0.892951 -4.326213 0.055138 24.150815 27.047948 -0.370197 3.677600 -0.860883 2.854300 8.932646 -27.691266 -4.599979 -0.024700 -1.015400 2.791200 -3.365367 1.243516 4.341521 27.223833 6.908890 -21.643351 -12.018308 -1.996762 -10.549797 -14.961744 -7.440507 -14.752476 13.727251 -10.785437 31.758749 2.574300 -3.456900 9.588400 -10.852127 -5.597413 1.450137 -90.221017 14.789917 -6.749133 13.886627 -16.129158 -2.757531 -0.626515 1.342070 19.997166 18.959890 -7.820187 -3.215200 -7.125000 0.000000 0.000000 -4.956800 20.563000 2.910700 10.458051 7.688658 2.464061 78.915590 -12.969058 -7.699991 -12.440552 16.954074 -2.378913 1.020059 1.384766 47.856385 7.211503 -28.052159 -3.762400 7.125000 0.000000 0.000000 40.433800 -54.874700 -11.156300 
0.697791 18.353204 9.233741 -11.370075 3.811327 13.531294 6.855275 4.862084 -1.798736 -14.307546 -46.867750 16.236200 -3.634973 -2.202057 -3.362774 -15.231388 44.618195 -26.206595 0.227100 3.067300 8.466200 0.898352 -4.323848 0.049409 24.128151 27.074604 -0.398153 3.678112 -0.860014 2.844976 8.939820 -27.711227 -4.605860 -0.024700 -1.013600 2.786300 -3.376831 1.239958 4.327685 27.259449 6.917829 -21.683788 -12.016876 -2.003689 -10.535401 -14.989428 -7.445834 -14.745274 13.729662 -10.786791 31.751649 2.578900 -3.458700 9.592200 -10.845659 -5.602726 1.446441 -90.263951 14.803460 -6.538744 13.931795 -16.175771 -2.767344 -0.634021 1.304988 19.771445 18.817095 -7.594122 -3.096300 -7.125000 0.000000 0.000000 -5.065400 20.846700 2.942500 10.446611 7.693996 2.472771 78.860007 -12.946840 -7.745477 -12.423644 16.934652 -2.375431 1.025616 1.384904 47.913336 7.247593 -28.139920 -3.790100 7.125000 0.000000 0.000000 40.543500 -54.939700 -11.263600 
